<?xml version="1.0" encoding="UTF-8" standalone="no"?>
<svg
   xmlns:dc="http://purl.org/dc/elements/1.1/"
   xmlns:cc="http://creativecommons.org/ns#"
   xmlns:rdf="http://www.w3.org/1999/02/22-rdf-syntax-ns#"
   xmlns:svg="http://www.w3.org/2000/svg"
   xmlns="http://www.w3.org/2000/svg"
   xmlns:sodipodi="http://sodipodi.sourceforge.net/DTD/sodipodi-0.dtd"
   xmlns:inkscape="http://www.inkscape.org/namespaces/inkscape"
   height="2496"
   viewBox="0 0.03 2498 2498.466"
   width="2496"
   id="svg2"
   version="1.1"
   inkscape:version="0.91 r13725"
   sodipodi:docname="ic_ytube.svg">
  <metadata
     id="metadata14">
    <rdf:RDF>
      <cc:Work
         rdf:about="">
        <dc:format>image/svg+xml</dc:format>
        <dc:type
           rdf:resource="http://purl.org/dc/dcmitype/StillImage" />
        <dc:title></dc:title>
      </cc:Work>
    </rdf:RDF>
  </metadata>
  <defs
     id="defs12" />
  <sodipodi:namedview
     pagecolor="#ffffff"
     bordercolor="#666666"
     borderopacity="1"
     objecttolerance="10"
     gridtolerance="10"
     guidetolerance="10"
     inkscape:pageopacity="0"
     inkscape:pageshadow="2"
     inkscape:window-width="759"
     inkscape:window-height="480"
     id="namedview10"
     showgrid="true"
     inkscape:zoom="0.0944"
     inkscape:cx="2007.3538"
     inkscape:cy="502.91504"
     inkscape:window-x="0"
     inkscape:window-y="0"
     inkscape:window-maximized="0"
     inkscape:current-layer="svg2">
    <inkscape:grid
       type="xygrid"
       id="grid4142" />
  </sodipodi:namedview>
  <path
     d="m 0,-3.2139519 2498,0 0,2497.9999519 -2498,0 z"
     id="path6"
     inkscape:connector-curvature="0"
     style="fill:none" />
  <path
     d="m 1304.352,2111.1386 -512.58838,-9.3746 c -165.96478,-3.2667 -332.3426,3.2542 -495.05317,-30.5896 C 49.190124,2020.609 31.654924,1772.6756 13.306184,1564.7064 -11.976536,1272.3281 -2.1888759,974.64278 45.522874,684.70511 72.457734,522.01957 178.45741,424.94394 342.38205,414.38027 895.74822,376.04316 1452.7941,380.58654 2004.9336,398.47219 c 58.313,1.63962 117.0265,10.60122 174.5259,20.80192 283.8298,49.75188 290.7513,330.71549 309.1501,567.23402 18.3487,238.95927 10.6012,479.14517 -24.4692,716.47727 -28.1364,196.5043 -81.9686,361.2926 -309.1501,377.2007 -284.6433,20.8019 -562.7533,37.5486 -848.1977,32.2167 0.013,-1.2642 -1.6271,-1.2642 -2.4406,-1.2642 z m -301.3525,-497.4938 c 214.5026,-123.1594 424.9124,-244.2661 638.1884,-366.5995 -214.9031,-123.1594 -424.9124,-244.2661 -638.1884,-366.59937 z"
     id="path8"
     inkscape:connector-curvature="0"
     style="fill:#ff0000" />
</svg>
