<?xml version="1.0" encoding="UTF-8" standalone="no"?>
<!-- Created with Inkscape (http://www.inkscape.org/) -->

<svg
   xmlns:dc="http://purl.org/dc/elements/1.1/"
   xmlns:cc="http://creativecommons.org/ns#"
   xmlns:rdf="http://www.w3.org/1999/02/22-rdf-syntax-ns#"
   xmlns:svg="http://www.w3.org/2000/svg"
   xmlns="http://www.w3.org/2000/svg"
   xmlns:sodipodi="http://sodipodi.sourceforge.net/DTD/sodipodi-0.dtd"
   xmlns:inkscape="http://www.inkscape.org/namespaces/inkscape"
   width="50"
   height="50"
   viewBox="0 0 30 30"
   fill="none"
   id="svg2"
   version="1.1"
   inkscape:version="0.91 r13725"
   sodipodi:docname="ic_logo.svg">
  <metadata
     id="metadata10">
    <rdf:RDF>
      <cc:Work
         rdf:about="">
        <dc:format>image/svg+xml</dc:format>
        <dc:type
           rdf:resource="http://purl.org/dc/dcmitype/StillImage" />
      </cc:Work>
    </rdf:RDF>
  </metadata>
  <defs
     id="defs8" />
  <sodipodi:namedview
     pagecolor="#ffffff"
     bordercolor="#666666"
     borderopacity="1"
     objecttolerance="10"
     gridtolerance="10"
     guidetolerance="10"
     inkscape:pageopacity="0"
     inkscape:pageshadow="2"
     inkscape:window-width="1920"
     inkscape:window-height="1017"
     id="namedview6"
     showgrid="true"
     inkscape:zoom="9.44"
     inkscape:cx="8.5259373"
     inkscape:cy="14.299021"
     inkscape:window-x="-8"
     inkscape:window-y="-8"
     inkscape:window-maximized="1"
     inkscape:current-layer="svg2">
    <inkscape:grid
       type="xygrid"
       id="grid4138" />
  </sodipodi:namedview>
  <g
     id="g4157"
     transform="translate(0.46987425,0.1869605)"
     style="fill:#e0e0e0;fill-opacity:1">
    <path
       d="m 6.9627428,10.075735 0,6.639404 1.3125,0 0,1.661133 -3.4709473,0 0,-8.300537 2.1584473,0 z"
       style="font-style:normal;font-variant:normal;font-weight:normal;font-stretch:condensed;font-size:medium;line-height:125%;font-family:Impact;-inkscape-font-specification:'Impact Condensed';text-align:center;letter-spacing:0px;word-spacing:0px;text-anchor:middle;fill:#e3e3e3;fill-opacity:1;stroke:none;stroke-width:1px;stroke-linecap:butt;stroke-linejoin:miter;stroke-opacity:1"
       id="path4145"
       inkscape:connector-curvature="0" />
    <path
       d="m 13.427831,13.961966 0,1.666259 q 0,0.917725 -0.09228,1.348389 -0.09229,0.425537 -0.394776,0.799805 -0.30249,0.36914 -0.779297,0.548584 -0.471679,0.174316 -1.086914,0.174316 -0.687012,0 -1.1638181,-0.148682 Q 9.4339342,18.196829 9.1673326,17.894339 8.905858,17.586721 8.7930651,17.156057 8.6802721,16.720266 8.6802721,15.853811 l 0,-1.743164 q 0,-0.948486 0.2050781,-1.481689 0.2050782,-0.533203 0.7382813,-0.856201 0.5332035,-0.322998 1.3637695,-0.322998 0.697266,0 1.19458,0.210205 0.502441,0.205078 0.77417,0.53833 0.271729,0.333252 0.369141,0.687011 0.102539,0.35376 0.102539,1.076661 z M 11.356542,13.44927 q 0,-0.522949 -0.0564,-0.65625 -0.0564,-0.138427 -0.240967,-0.138427 -0.18457,0 -0.246093,0.138427 -0.06152,0.133301 -0.06152,0.65625 l 0,3.071045 q 0,0.481934 0.06152,0.630615 0.06152,0.143555 0.240966,0.143555 0.184571,0 0.240967,-0.133301 0.06152,-0.1333 0.06152,-0.574218 l 0,-3.137696 z"
       style="font-style:normal;font-variant:normal;font-weight:normal;font-stretch:condensed;font-size:medium;line-height:125%;font-family:Impact;-inkscape-font-specification:'Impact Condensed';text-align:center;letter-spacing:0px;word-spacing:0px;text-anchor:middle;fill:#e3e3e3;fill-opacity:1;stroke:none;stroke-width:1px;stroke-linecap:butt;stroke-linejoin:miter;stroke-opacity:1"
       id="path4147"
       inkscape:connector-curvature="0" />
    <path
       d="m 18.821385,11.572805 0,5.239746 q 0,1.06128 -0.05127,1.374024 -0.04614,0.307617 -0.343506,0.651123 -0.297363,0.348633 -0.830566,0.528076 -0.528077,0.18457 -1.333008,0.18457 -0.989502,0 -1.589356,-0.338378 -0.599853,-0.333252 -0.620361,-1.317627 l 2.009766,0 q 0,0.451171 0.328125,0.451171 0.235839,0 0.312744,-0.138427 0.0769,-0.138428 0.0769,-0.579346 l 0,-0.512695 q -0.266602,0.240967 -0.563965,0.364013 -0.292236,0.123047 -0.615234,0.123047 -0.558838,0 -0.922852,-0.225586 -0.358886,-0.225586 -0.492187,-0.589599 -0.133301,-0.369141 -0.133301,-1.045899 l 0,-2.471191 q 0,-0.968994 0.348633,-1.394531 0.348633,-0.425537 1.061279,-0.425537 0.389649,0 0.70752,0.158935 0.322998,0.158936 0.574218,0.476807 l 0.148682,-0.512696 1.927734,0 z m -2.076416,1.804688 q 0,-0.466553 -0.0564,-0.594727 -0.05127,-0.128173 -0.23584,-0.128173 -0.179443,0 -0.256348,0.148681 -0.07178,0.143555 -0.07178,0.574219 l 0,2.286621 q 0,0.456299 0.0564,0.594727 0.0564,0.1333 0.235839,0.1333 0.205078,0 0.266602,-0.164062 0.06152,-0.164063 0.06152,-0.743408 l 0,-2.107178 z"
       style="font-style:normal;font-variant:normal;font-weight:normal;font-stretch:condensed;font-size:medium;line-height:125%;font-family:Impact;-inkscape-font-specification:'Impact Condensed';text-align:center;letter-spacing:0px;word-spacing:0px;text-anchor:middle;fill:#e3e3e3;fill-opacity:1;stroke:none;stroke-width:1px;stroke-linecap:butt;stroke-linejoin:miter;stroke-opacity:1"
       id="path4149"
       inkscape:connector-curvature="0" />
    <path
       d="m 24.255956,13.961966 0,1.666259 q 0,0.917725 -0.09229,1.348389 -0.09229,0.425537 -0.394776,0.799805 -0.30249,0.36914 -0.779297,0.548584 -0.471679,0.174316 -1.086914,0.174316 -0.687012,0 -1.163818,-0.148682 -0.476807,-0.153808 -0.743408,-0.456298 -0.261475,-0.307618 -0.374268,-0.738282 -0.112793,-0.435791 -0.112793,-1.302246 l 0,-1.743164 q 0,-0.948486 0.205078,-1.481689 0.205078,-0.533203 0.738281,-0.856201 0.533204,-0.322998 1.36377,-0.322998 0.697266,0 1.19458,0.210205 0.502441,0.205078 0.77417,0.53833 0.271729,0.333252 0.369141,0.687011 0.102539,0.35376 0.102539,1.076661 z M 22.184667,13.44927 q 0,-0.522949 -0.0564,-0.65625 -0.0564,-0.138427 -0.240967,-0.138427 -0.18457,0 -0.246093,0.138427 -0.06152,0.133301 -0.06152,0.65625 l 0,3.071045 q 0,0.481934 0.06152,0.630615 0.06152,0.143555 0.240966,0.143555 0.184571,0 0.240967,-0.133301 0.06152,-0.1333 0.06152,-0.574218 l 0,-3.137696 z"
       style="font-style:normal;font-variant:normal;font-weight:normal;font-stretch:condensed;font-size:medium;line-height:125%;font-family:Impact;-inkscape-font-specification:'Impact Condensed';text-align:center;letter-spacing:0px;word-spacing:0px;text-anchor:middle;fill:#e3e3e3;fill-opacity:1;stroke:none;stroke-width:1px;stroke-linecap:butt;stroke-linejoin:miter;stroke-opacity:1"
       id="path4151"
       inkscape:connector-curvature="0" />
  </g>
</svg>
